<?xml version="1.0" encoding="UTF-8" standalone="no"?>
<!-- Created with Inkscape (http://www.inkscape.org/) -->

<svg
   xmlns:dc="http://purl.org/dc/elements/1.1/"
   xmlns:cc="http://creativecommons.org/ns#"
   xmlns:rdf="http://www.w3.org/1999/02/22-rdf-syntax-ns#"
   xmlns:svg="http://www.w3.org/2000/svg"
   xmlns="http://www.w3.org/2000/svg"
   xmlns:sodipodi="http://sodipodi.sourceforge.net/DTD/sodipodi-0.dtd"
   xmlns:inkscape="http://www.inkscape.org/namespaces/inkscape"
   width="2560"
   height="1440"
   id="svg3819"
   version="1.1"
   inkscape:version="0.48.5 r10040"
   sodipodi:docname="13.svg"
   inkscape:export-filename="/home/gordon/Studium/Bachelorarbeit/SlidingWindowFilter-experiment/img/13.png"
   inkscape:export-xdpi="90"
   inkscape:export-ydpi="90">
  <defs
     id="defs3821">
    <marker
       inkscape:stockid="DotM"
       orient="auto"
       refY="0"
       refX="0"
       id="DotM"
       style="overflow:visible">
      <path
         inkscape:connector-curvature="0"
         id="path3854"
         d="m -2.5,-1 c 0,2.76 -2.24,5 -5,5 -2.76,0 -5,-2.24 -5,-5 0,-2.76 2.24,-5 5,-5 2.76,0 5,2.24 5,5 z"
         style="fill-rule:evenodd;stroke:#000000;stroke-width:1pt"
         transform="matrix(0.4,0,0,0.4,2.96,0.4)" />
    </marker>
    <marker
       inkscape:stockid="Arrow2Mend"
       orient="auto"
       refY="0"
       refX="0"
       id="Arrow2Mend"
       style="overflow:visible">
      <path
         inkscape:connector-curvature="0"
         id="path3817"
         style="fill-rule:evenodd;stroke-width:0.625;stroke-linejoin:round"
         d="M 8.7185878,4.0337352 -2.2072895,0.01601326 8.7185884,-4.0017078 c -1.7454984,2.3720609 -1.7354408,5.6174519 -6e-7,8.035443 z"
         transform="scale(-0.6,-0.6)" />
    </marker>
  </defs>
  <sodipodi:namedview
     id="base"
     pagecolor="#ffffff"
     bordercolor="#666666"
     borderopacity="1.0"
     inkscape:pageopacity="0.0"
     inkscape:pageshadow="2"
     inkscape:zoom="0.35"
     inkscape:cx="100.07631"
     inkscape:cy="520"
     inkscape:document-units="px"
     inkscape:current-layer="layer1"
     showgrid="false"
     inkscape:snap-bbox="true"
     inkscape:bbox-nodes="true"
     inkscape:snap-bbox-edge-midpoints="true"
     inkscape:bbox-paths="true"
     inkscape:object-nodes="true"
     inkscape:object-paths="true"
     inkscape:window-width="2560"
     inkscape:window-height="1374"
     inkscape:window-x="0"
     inkscape:window-y="27"
     inkscape:window-maximized="1" />
  <metadata
     id="metadata3824">
    <rdf:RDF>
      <cc:Work
         rdf:about="">
        <dc:format>image/svg+xml</dc:format>
        <dc:type
           rdf:resource="http://purl.org/dc/dcmitype/StillImage" />
        <dc:title></dc:title>
      </cc:Work>
    </rdf:RDF>
  </metadata>
  <g
     inkscape:label="Layer 1"
     inkscape:groupmode="layer"
     id="layer1"
     transform="translate(0,387.63782)">
    <flowRoot
       transform="translate(0,-387.63782)"
       style="font-size:120px;font-style:normal;font-weight:normal;text-align:start;line-height:125%;letter-spacing:0px;word-spacing:0px;text-anchor:start;fill:#000000;fill-opacity:1;stroke:none;font-family:Sans;-inkscape-font-specification:Sans"
       id="flowRoot3019"
       xml:space="preserve"><flowRegion
         id="flowRegion3021"><rect
           style="font-size:120px;font-weight:normal;text-align:start;text-anchor:start;fill:#000000;-inkscape-font-specification:Sans"
           y="68.5625"
           x="68.5625"
           height="451.43753"
           width="2422.875"
           id="rect3023" /></flowRegion><flowPara
         id="flowPara4134">Please sit on an office</flowPara><flowPara
         id="flowPara4444">chair, turn around your</flowPara><flowPara
         id="flowPara4446">own axis once</flowPara></flowRoot>    <flowRoot
       xml:space="preserve"
       id="flowRoot3033"
       style="font-size:120px;font-style:normal;font-weight:normal;text-align:start;line-height:125%;letter-spacing:0px;word-spacing:0px;text-anchor:start;fill:#000000;fill-opacity:1;stroke:none;font-family:Sans;-inkscape-font-specification:Sans"
       transform="translate(0,298.08093)"><flowRegion
         id="flowRegion3035"><rect
           id="rect3037"
           width="2422.875"
           height="320.00897"
           x="68.5625"
           y="68.5625"
           style="font-size:120px;font-weight:normal;text-align:start;text-anchor:start;fill:#000000;-inkscape-font-specification:Sans" /></flowRegion><flowPara
         id="flowPara3039">and perform the following</flowPara><flowPara
         id="flowPara3939">gesture afterwards</flowPara></flowRoot>    <g
       id="g4493"
       transform="translate(-131.16465,0)">
      <path
         inkscape:export-ydpi="52.117844"
         inkscape:export-xdpi="52.117844"
         inkscape:export-filename="/home/gordon/Studium/Bachelorarbeit/img/circle-right.png"
         sodipodi:nodetypes="ccssc"
         inkscape:connector-curvature="0"
         id="path4086"
         d="m 2287.8122,285.33013 c -78.7354,-3.26401 -132.3599,-16.52521 -133.435,-28.90513 0,-16.29501 74.8196,-29.50467 167.1144,-29.50467 92.2948,0 167.0818,13.30918 167.1144,29.50467 0.03,15.17973 -58.5808,26.14822 -133.435,28.90513"
         style="fill:none;stroke:#000000;stroke-width:5.6627593;stroke-miterlimit:4;stroke-opacity:1;stroke-dasharray:none;marker-start:url(#DotM);marker-end:url(#Arrow2Mend)" />
      <g
         style="fill:#0000ff"
         transform="matrix(1.4156898,0,0,1.4156898,-189.97113,-998.55855)"
         id="g4096">
        <rect
           transform="matrix(0,-1,1,0,0,0)"
           style="fill:#0000ff;fill-opacity:1;fill-rule:nonzero;stroke:none"
           id="rect4035"
           width="28.284271"
           height="148.66362"
           x="-790.12744"
           y="1699.6887"
           ry="14.142136" />
        <rect
           ry="14.142136"
           y="793.84619"
           x="1759.8784"
           height="106.18497"
           width="28.284271"
           id="rect4039"
           style="fill:#0000ff;fill-opacity:1;fill-rule:nonzero;stroke:none" />
        <rect
           style="fill:#0000ff;fill-opacity:1;fill-rule:nonzero;stroke:none"
           id="rect4044"
           width="28.284271"
           height="177.58635"
           x="1820.0681"
           y="612.54108"
           ry="14.142136" />
      </g>
      <g
         style="fill:#0000ff"
         transform="matrix(1.4156898,0,0,1.4156898,-189.97113,-998.55855)"
         id="g4101">
        <path
           transform="translate(1465.7296,217.54326)"
           d="m 338.4011,305.85947 c 0,23.98934 -19.44721,43.43655 -43.43656,43.43655 -23.98935,0 -43.43656,-19.44721 -43.43656,-43.43655 0,-23.98935 19.44721,-43.43656 43.43656,-43.43656 23.98935,0 43.43656,19.44721 43.43656,43.43656 z"
           sodipodi:ry="43.436558"
           sodipodi:rx="43.436558"
           sodipodi:cy="305.85947"
           sodipodi:cx="294.96454"
           id="path4048"
           style="fill:#0000ff;fill-opacity:1;fill-rule:nonzero;stroke:none"
           sodipodi:type="arc" />
        <rect
           ry="19.192898"
           y="570.55798"
           x="1721.8032"
           height="155.56349"
           width="77.781746"
           id="rect4056"
           style="fill:#0000ff;fill-opacity:1;fill-rule:nonzero;stroke:none" />
        <rect
           ry="14.142136"
           y="-1799.585"
           x="729.84015"
           height="131.89925"
           width="28.284271"
           id="rect4052"
           style="fill:#0000ff;fill-opacity:1;fill-rule:nonzero;stroke:none"
           transform="matrix(0,1,-1,0,0,0)" />
        <rect
           transform="scale(-1,-1)"
           style="fill:#0000ff;fill-opacity:1;fill-rule:nonzero;stroke:none"
           id="rect4066"
           width="28.284271"
           height="131.89925"
           x="-1695.97"
           y="-861.73938"
           ry="14.142136" />
      </g>
    </g>
    <g
       transform="matrix(1.1901602,0,0,1.1901602,719.47489,-43.180791)"
       id="g3188"
       style="fill:#0000ff;stroke:none">
      <path
         style="font-size:medium;font-style:normal;font-variant:normal;font-weight:normal;font-stretch:normal;text-indent:0;text-align:start;text-decoration:none;line-height:normal;letter-spacing:normal;word-spacing:normal;text-transform:none;direction:ltr;block-progression:tb;writing-mode:lr-tb;text-anchor:start;baseline-shift:baseline;color:#000000;fill:#0000ff;fill-opacity:1;stroke:none;stroke-width:10;marker:none;visibility:visible;display:inline;overflow:visible;enable-background:accumulate;font-family:Sans;-inkscape-font-specification:Sans"
         d="m 1235.8438,344.34375 c -139.685,0 -252.95079,114.15629 -253.00005,253 -0.0458,129.86232 88.83425,224.2363 202.00005,247.84375 l 2.0624,-9.78125 C 1077.9096,812.6685 992.79955,722.65973 992.84375,597.34375 c 0.0473,-133.41045 108.76015,-243 243.00005,-243 134.2393,0 242.966,108.70619 243,242.9375 0,0.0105 -1e-4,0.0208 0,0.0312 -2e-4,0.0104 10e-5,0.0209 0,0.0312 -1.5881,101.54467 -79.7809,211.23775 -194.1563,238.09375 l 2.2813,9.71875 c 119.283,-28.00833 200.2413,-141.20084 201.875,-247.75 l 0,-0.0312 0,-0.0312 c 0,-139.66465 -113.3354,-253 -253,-253 z"
         id="path6495"
         inkscape:connector-curvature="0" />
      <path
         style="fill-rule:evenodd;stroke:none;stroke-width:4pt;fill:#0000ff"
         d="m 1304.9097,835.81707 c 2.5236,10.7477 -4.151,21.51862 -14.8987,24.04224 -10.7477,2.52362 -21.5187,-4.151 -24.0423,-14.89869 -2.5236,-10.7477 4.151,-21.51862 14.8987,-24.04224 10.7477,-2.52362 21.5186,4.151 24.0423,14.89869 z"
         id="path3194"
         inkscape:connector-curvature="0" />
      <path
         d="m 1139.6037,805.92232 59.251,36.98558 -69.0967,10.21106 c 13.1588,-11.79371 17.0762,-30.86803 9.8457,-47.19664 z"
         style="fill-rule:evenodd;stroke-width:0.62500000000000000;stroke-linejoin:round;fill:#0000ff;stroke:none"
         id="path3196"
         inkscape:connector-curvature="0" />
    </g>
  </g>
</svg>
