<?xml version="1.0" encoding="UTF-8" standalone="no"?>
<!-- Created with Inkscape (http://www.inkscape.org/) -->

<svg
   xmlns:dc="http://purl.org/dc/elements/1.1/"
   xmlns:cc="http://creativecommons.org/ns#"
   xmlns:rdf="http://www.w3.org/1999/02/22-rdf-syntax-ns#"
   xmlns:svg="http://www.w3.org/2000/svg"
   xmlns="http://www.w3.org/2000/svg"
   xmlns:sodipodi="http://sodipodi.sourceforge.net/DTD/sodipodi-0.dtd"
   xmlns:inkscape="http://www.inkscape.org/namespaces/inkscape"
   width="2560"
   height="1440"
   id="svg3819"
   version="1.1"
   inkscape:version="0.48.5 r10040"
   sodipodi:docname="layout.svg">
  <defs
     id="defs3821" />
  <sodipodi:namedview
     id="base"
     pagecolor="#ffffff"
     bordercolor="#666666"
     borderopacity="1.0"
     inkscape:pageopacity="0.0"
     inkscape:pageshadow="2"
     inkscape:zoom="0.35"
     inkscape:cx="-313.57143"
     inkscape:cy="520"
     inkscape:document-units="px"
     inkscape:current-layer="layer1"
     showgrid="false"
     inkscape:snap-bbox="true"
     inkscape:bbox-nodes="true"
     inkscape:snap-bbox-edge-midpoints="true"
     inkscape:bbox-paths="true"
     inkscape:object-nodes="true"
     inkscape:object-paths="true"
     inkscape:window-width="2560"
     inkscape:window-height="1374"
     inkscape:window-x="0"
     inkscape:window-y="27"
     inkscape:window-maximized="1" />
  <metadata
     id="metadata3824">
    <rdf:RDF>
      <cc:Work
         rdf:about="">
        <dc:format>image/svg+xml</dc:format>
        <dc:type
           rdf:resource="http://purl.org/dc/dcmitype/StillImage" />
        <dc:title></dc:title>
      </cc:Work>
    </rdf:RDF>
  </metadata>
  <g
     inkscape:label="Layer 1"
     inkscape:groupmode="layer"
     id="layer1"
     transform="translate(0,387.63782)">
    <flowRoot
       xml:space="preserve"
       id="flowRoot3874"
       style="font-size:120px;font-style:normal;font-weight:normal;text-align:center;line-height:125%;letter-spacing:0px;word-spacing:0px;text-anchor:middle;fill:#000000;fill-opacity:1;stroke:none;font-family:Sans;-inkscape-font-specification:Sans"
       transform="translate(0,-387.63782)"><flowRegion
         id="flowRegion3876"><rect
           id="rect3878"
           width="2422.875"
           height="320.00897"
           x="68.5625"
           y="68.5625"
           style="font-size:120px;font-weight:normal;text-align:center;text-anchor:middle;fill:#000000;-inkscape-font-specification:Sans" /></flowRegion><flowPara
         id="flowPara3890">Please perform the following gesture</flowPara></flowRoot>    <g
       transform="matrix(1.8348078,0,0,1.8348078,66.647319,-599.44239)"
       id="g3062"
       style="fill:#0000ff;stroke:none;stroke-opacity:1">
      <path
         style="font-size:medium;font-style:normal;font-variant:normal;font-weight:normal;font-stretch:normal;text-indent:0;text-align:start;text-decoration:none;line-height:normal;letter-spacing:normal;word-spacing:normal;text-transform:none;direction:ltr;block-progression:tb;writing-mode:lr-tb;text-anchor:start;baseline-shift:baseline;color:#000000;fill:#0000ff;fill-opacity:1;stroke:none;stroke-width:10;marker:none;visibility:visible;display:inline;overflow:visible;enable-background:accumulate;font-family:Sans;-inkscape-font-specification:Sans;stroke-opacity:1"
         d="m 661.28125,344.34375 c -139.66465,0 -252.96875,113.33535 -252.96875,253 l 0,0.0312 0,0.0312 c 1.63355,106.54916 82.56072,219.74167 201.84375,247.75 l 2.3125,-9.71875 C 498.09331,808.5815 419.90051,698.88841 418.3125,597.34375 c 0,-0.0105 0,-0.0208 0,-0.0312 -1.6e-4,-0.0104 1.6e-4,-0.0209 0,-0.0312 0.034,-134.23131 108.72947,-242.9375 242.96875,-242.9375 134.23991,0 242.95266,109.58955 243,243 0.0445,125.31596 -85.03461,215.32475 -194.03125,238.0625 l 2.03125,9.78125 c 113.16564,-23.60745 202.04611,-117.98141 202,-247.84375 -0.0493,-138.84371 -113.31503,-253 -253,-253 z"
         id="path5352"
         inkscape:connector-curvature="0" />
      <path
         style="fill-rule:evenodd;stroke:none;stroke-width:4pt;fill:#0000ff;stroke-opacity:1"
         d="m 592.23307,835.81705 c 2.52362,-10.74769 13.29454,-17.42231 24.04223,-14.89869 10.7477,2.52362 17.42231,13.29454 14.89869,24.04224 -2.52362,10.74769 -13.29454,17.42231 -24.04224,14.89869 -10.74769,-2.52362 -17.4223,-13.29454 -14.89868,-24.04224 z"
         id="path3068"
         inkscape:connector-curvature="0" />
      <path
         d="m 767.42397,853.30705 -69.09661,-10.21106 59.25094,-36.98558 c -7.34585,16.07116 -3.31026,35.12083 9.84567,47.19664 z"
         style="fill-rule:evenodd;stroke-width:0.62500000000000000;stroke-linejoin:round;fill:#0000ff;stroke:none;stroke-opacity:1"
         id="path3070"
         inkscape:connector-curvature="0" />
    </g>
  </g>
</svg>
